<svg width="854.688916015625px" height="129.2px" xmlns="http://www.w3.org/2000/svg" viewBox="-177.34445800781248 10.400000000000006 854.688916015625 129.2" style="background: rgba(89, 104, 134, 0);" preserveAspectRatio="xMidYMid"><defs><filter id="editing-hover" x="-100%" y="-100%" width="300%" height="300%"><feFlood flood-color="#620037" result="flood"></feFlood><feComposite operator="in" in2="SourceAlpha" in="flood" result="shadow"></feComposite><feOffset dx="-2" dy="-1.2" in="SourceGraphic" result="offset-1"></feOffset><feOffset dx="2" dy="1.2" in="shadow" result="offset-2"></feOffset><feMerge><feMergeNode in="offset-2"></feMergeNode><feMergeNode in="offset-1"></feMergeNode></feMerge></filter></defs><g filter="url(#editing-hover)"><g transform="translate(-53.62016421556473, 100.5483512878418)"><path d="M-0.25-2.88L-0.25-2.88L-0.25-2.88Q5.16-6.84 10.66-23.31L10.66-23.31L10.66-23.31Q13.84-32.91 15.09-40.63L15.09-40.63L15.09-40.63Q15.44-42.78 15.44-43.94L15.44-43.94L15.44-43.94Q14.16-43.88 13.06-43.25L13.06-43.25L10.72-41.91L10.72-41.91Q9.75-41.38 8.14-42.75L8.14-42.75L8.14-42.75Q6.53-44.13 6.67-45.08L6.67-45.08L6.67-45.08Q6.81-46.03 7.73-46.64L7.73-46.64L7.73-46.64Q8.66-47.25 9.88-47.69L9.88-47.69L9.88-47.69Q12.44-48.59 14.17-48.59L14.17-48.59L14.17-48.59Q15.91-48.59 17.23-48.33L17.23-48.33L17.23-48.33Q18.56-48.06 19.66-47.44L19.66-47.44L19.66-47.44Q22.16-46 22.22-43.31L22.22-43.31L22.22-43.31Q22.34-38.66 19.06-27.50L19.06-27.50L19.06-27.50Q13.88-9.84 6.88-2.69L6.88-2.69L6.88-2.69Q4.97-0.72 2.91 0L2.91 0L2.91 0Q2.34 0.22 1.77 0.22L1.77 0.22L1.77 0.22Q1.19 0.22 0.72 0.02L0.72 0.02L0.72 0.02Q0.25-0.19-0.06-0.50L-0.06-0.50L-0.06-0.50Q-0.72-1.09-0.72-1.81L-0.72-1.81L-0.72-1.81Q-0.72-2.53-0.25-2.88ZM54.44-3.22L54.44-3.22L54.47-2.19L54.47-2.19Q54.47-1.13 53.88-0.53L53.88-0.53L53.88-0.53Q53.28 0.06 52.27 0.06L52.27 0.06L52.27 0.06Q51.25 0.06 50-0.78L50-0.78L50-0.78Q48.75-1.63 47.34-3.63L47.34-3.63L47.34-3.63Q45.94-5.63 44.56-9.08L44.56-9.08L44.56-9.08Q43.19-12.53 42.28-16.44L42.28-16.44L42.28-16.44Q40.47-24.19 40.47-32.66L40.47-32.66L40.47-32.66Q40.47-36.88 40.94-40.69L40.94-40.69L40.53-40.13L40.53-40.13Q34.72-31.81 30.22-15.19L30.22-15.19L30.22-15.19Q28.09-7.44 27.28-0.59L27.28-0.59L27.28-0.59Q27.16 0.34 25.75 0.34L25.75 0.34L25.75 0.34Q23.53 0.34 22.53-1.94L22.53-1.94L22.53-1.94Q22.19-2.75 22.19-4.22L22.19-4.22L22.19-4.22Q22.19-5.69 22.73-8.52L22.73-8.52L22.73-8.52Q23.28-11.34 24.25-14.77L24.25-14.77L24.25-14.77Q25.22-18.19 26.59-21.98L26.59-21.98L26.59-21.98Q27.97-25.78 29.61-29.50L29.61-29.50L29.61-29.50Q31.25-33.22 33.14-36.59L33.14-36.59L33.14-36.59Q35.03-39.97 37.03-42.56L37.03-42.56L37.03-42.56Q41.47-48.25 45.34-48.44L45.34-48.44L45.34-48.44Q47.47-48.56 48.03-47.78L48.03-47.78L48.03-47.78Q48.66-46.91 48.16-44.78L48.16-44.78L48.16-44.78Q47.25-41.13 47.25-37.53L47.25-37.53L47.25-37.53Q47.25-33.94 47.42-31.47L47.42-31.47L47.42-31.47Q47.59-29 47.91-26.52L47.91-26.52L47.91-26.52Q48.22-24.03 48.67-21.59L48.67-21.59L48.67-21.59Q49.13-19.16 49.66-16.94L49.66-16.94L49.66-16.94Q50.88-12.06 52.13-9.25L52.13-9.25L52.13-9.25Q53.13-11.84 54.31-14.44L54.31-14.44L58.97-24.69L58.97-24.69Q62.84-33.38 62.84-38.63L62.84-38.63L62.84-38.63Q62.84-43.56 60.81-44.59L60.81-44.59L60.81-44.59Q60.31-44.81 60.20-45.41L60.20-45.41L60.20-45.41Q60.09-46 60.42-46.59L60.42-46.59L60.42-46.59Q60.75-47.19 61.28-47.63L61.28-47.63L61.28-47.63Q62.53-48.66 64.05-48.66L64.05-48.66L64.05-48.66Q65.56-48.66 66.84-48.02L66.84-48.02L66.84-48.02Q68.13-47.38 68.97-46.31L68.97-46.31L68.97-46.31Q70.56-44.28 70.56-41.52L70.56-41.52L70.56-41.52Q70.56-38.75 69.61-35.80L69.61-35.80L69.61-35.80Q68.66-32.84 67.16-29.64L67.16-29.64L67.16-29.64Q65.66-26.44 63.81-23.13L63.81-23.13L60.22-16.56L60.22-16.56Q55.94-8.75 54.66-4.69L54.66-4.69L54.66-4.69Q54.44-4.06 54.44-3.22ZM96.19-20.47L96.19-20.47L96.19-20.47Q95.28-20.50 94.30-20.58L94.30-20.58L94.30-20.58Q93.31-20.66 91.97-20.69L91.97-20.69L91.97-20.69Q89.03-20.75 85.59-20.44L85.59-20.44L85.59-20.44Q84.81-17.75 83.02-13.83L83.02-13.83L83.02-13.83Q81.22-9.91 79.47-7.19L79.47-7.19L79.47-7.19Q75.72-1.38 71.84 0L71.84 0L71.84 0Q71.28 0.22 70.70 0.22L70.70 0.22L70.70 0.22Q70.13 0.22 69.66 0.02L69.66 0.02L69.66 0.02Q69.19-0.19 68.88-0.50L68.88-0.50L68.88-0.50Q68.22-1.09 68.22-1.81L68.22-1.81L68.22-1.81Q68.22-2.53 68.69-2.88L68.69-2.88L68.69-2.88Q73.13-6.09 77.81-19.09L77.81-19.09L77.81-19.09Q77.47-19 77.13-18.91L77.13-18.91L77.13-18.91Q76.78-18.81 76.53-18.72L76.53-18.72L76.53-18.72Q76.28-18.63 75.95-18.63L75.95-18.63L75.95-18.63Q75.63-18.63 75.23-18.83L75.23-18.83L75.23-18.83Q74.84-19.03 74.53-19.31L74.53-19.31L74.53-19.31Q73.84-19.94 73.84-20.53L73.84-20.53L73.84-20.53Q73.84-21.13 74.39-21.64L74.39-21.64L74.39-21.64Q74.94-22.16 75.75-22.63L75.75-22.63L75.75-22.63Q77.25-23.50 79.53-24.25L79.53-24.25L81.22-29.50L81.22-29.50Q84.19-38.72 86.91-42.28L86.91-42.28L86.91-42.28Q84.34-42.50 83.13-42.50L83.13-42.50L83.13-42.50Q79.44-42.50 77.81-41.47L77.81-41.47L77.81-41.47Q76.22-40.44 75.58-39.23L75.58-39.23L75.58-39.23Q74.94-38.03 74.91-37.56L74.91-37.56L74.91-37.56Q74.81-36.69 74.34-36.45L74.34-36.45L74.34-36.45Q73.88-36.22 73.20-36.22L73.20-36.22L73.20-36.22Q72.53-36.22 71.81-36.70L71.81-36.70L71.81-36.70Q71.09-37.19 70.63-37.94L70.63-37.94L70.63-37.94Q69.63-39.47 69.84-41.39L69.84-41.39L69.84-41.39Q70.06-43.31 71.11-44.70L71.11-44.70L71.11-44.70Q72.16-46.09 73.59-46.97L73.59-46.97L73.59-46.97Q76.25-48.59 79.20-48.59L79.20-48.59L79.20-48.59Q82.16-48.59 84.80-48.30L84.80-48.30L84.80-48.30Q87.44-48 90.06-47.63L90.06-47.63L90.06-47.63Q97.03-46.69 98.94-46.69L98.94-46.69L98.94-46.69Q100.84-46.69 101.77-46.91L101.77-46.91L101.77-46.91Q102.69-47.13 103.34-47.56L103.34-47.56L103.34-47.56Q104-48 104.27-48.14L104.27-48.14L104.27-48.14Q104.53-48.28 105.13-48.28L105.13-48.28L105.13-48.28Q106.06-48.28 105.94-46.86L105.94-46.86L105.94-46.86Q105.81-45.44 105.25-44.42L105.25-44.42L105.25-44.42Q104.69-43.41 103.78-42.75L103.78-42.75L103.78-42.75Q101.94-41.41 99.09-41.41L99.09-41.41L99.09-41.41Q96.25-41.41 92.19-41.78L92.19-41.78L92.19-41.78Q91.16-39.69 90.22-36.28L90.22-36.28L87.34-25.97L87.34-25.97Q90.28-26.44 91.83-26.44L91.83-26.44L91.83-26.44Q93.38-26.44 94.38-26.13L94.38-26.13L94.38-26.13Q95.38-25.81 96.16-25.25L96.16-25.25L96.16-25.25Q97.97-24.03 97.94-22.25L97.94-22.25L97.94-22.25Q97.91-20.47 96.19-20.47ZM103.16-14.25L103.16-14.25L103.16-14.25Q103.28-18 104.33-22.14L104.33-22.14L104.33-22.14Q105.38-26.28 107.19-30.13L107.19-30.13L107.19-30.13Q109-33.97 111.48-37.34L111.48-37.34L111.48-37.34Q113.97-40.72 116.94-43.22L116.94-43.22L116.94-43.22Q123.31-48.59 130.31-48.59L130.31-48.59L130.31-48.59Q138.81-48.59 141.41-40.88L141.41-40.88L141.41-40.88Q142.34-38.16 142.23-34.17L142.23-34.17L142.23-34.17Q142.13-30.19 141.02-26.06L141.02-26.06L141.02-26.06Q139.91-21.94 138.02-18.09L138.02-18.09L138.02-18.09Q136.13-14.25 133.59-10.89L133.59-10.89L133.59-10.89Q131.06-7.53 128.09-5.06L128.09-5.06L128.09-5.06Q121.75 0.31 115.41 0.31L115.41 0.31L115.41 0.31Q109.72 0.31 106.38-3.41L106.38-3.41L106.38-3.41Q102.97-7.22 103.16-14.25ZM113.34-26.25L113.34-26.25Q111.75-22.63 110.77-18.84L110.77-18.84L110.77-18.84Q109.78-15.06 109.70-12.42L109.70-12.42L109.70-12.42Q109.63-9.78 110.02-8.33L110.02-8.33L110.02-8.33Q110.41-6.88 111.13-5.88L111.13-5.88L111.13-5.88Q112.63-3.75 114.98-3.75L114.98-3.75L114.98-3.75Q117.34-3.75 119.72-5.28L119.72-5.28L119.72-5.28Q122.09-6.81 124.33-9.38L124.33-9.38L124.33-9.38Q126.56-11.94 128.58-15.28L128.58-15.28L128.58-15.28Q130.59-18.63 132.13-22.25L132.13-22.25L132.13-22.25Q136.56-32.78 135.38-39.63L135.38-39.63L135.38-39.63Q134.56-44.38 130.19-44.38L130.19-44.38L130.19-44.38Q126.19-44.38 121.28-38.94L121.28-38.94L121.28-38.94Q116.66-33.88 113.34-26.25L113.34-26.25ZM174.88-37.81L174.88-37.81L174.88-37.81Q174.88-44.03 166.66-44.03L166.66-44.03L166.66-44.03Q161.50-44.03 156.22-40.91L156.22-40.91L156.22-40.91Q154.69-40 153.83-39.23L153.83-39.23L153.83-39.23Q152.97-38.47 152.19-38.47L152.19-38.47L152.19-38.47Q151.41-38.47 150.69-38.86L150.69-38.86L150.69-38.86Q149.97-39.25 149.41-39.84L149.41-39.84L149.41-39.84Q147.34-42.13 149.84-44.25L149.84-44.25L149.84-44.25Q153.59-47.47 162.28-48.41L162.28-48.41L162.28-48.41Q164.03-48.59 166.72-48.59L166.72-48.59L166.72-48.59Q169.41-48.59 172.39-47.63L172.39-47.63L172.39-47.63Q175.38-46.66 177.41-45L177.41-45L177.41-45Q181.47-41.66 181.47-36.47L181.47-36.47L181.47-36.47Q181.47-30.31 175.84-25.25L175.84-25.25L175.84-25.25Q170.97-20.81 164.31-18.91L164.31-18.91L164.31-18.91Q166.13-17.41 167.72-14.59L167.72-14.59L170.22-10.13L170.22-10.13Q173.50-4.03 176.09-3.50L176.09-3.50L176.09-3.50Q177-3.34 177.97-3.56L177.97-3.56L177.97-3.56Q178.94-3.78 179.23-3.77L179.23-3.77L179.23-3.77Q179.53-3.75 179.64-3.25L179.64-3.25L179.64-3.25Q179.75-2.75 179.38-2L179.38-2L179.38-2Q179-1.25 178.16-0.59L178.16-0.59L178.16-0.59Q176.19 0.97 173.84 0.80L173.84 0.80L173.84 0.80Q171.50 0.63 170.05-0.17L170.05-0.17L170.05-0.17Q168.59-0.97 167.45-2.19L167.45-2.19L167.45-2.19Q166.31-3.41 165.42-4.91L165.42-4.91L165.42-4.91Q164.53-6.41 163.78-7.97L163.78-7.97L162.38-11.03L162.38-11.03Q161.72-12.53 161.16-13.61L161.16-13.61L161.16-13.61Q160.59-14.69 160.19-15.58L160.19-15.58L160.19-15.58Q159.78-16.47 159.28-17.19L159.28-17.19L159.28-17.19Q158.22-18.81 156.56-19.25L156.56-19.25L156.56-19.25Q150-2.38 143.22 0L143.22 0L143.22 0Q142.66 0.22 142.08 0.22L142.08 0.22L142.08 0.22Q141.50 0.22 141.03 0.02L141.03 0.02L141.03 0.02Q140.56-0.19 140.25-0.50L140.25-0.50L140.25-0.50Q139.59-1.09 139.59-1.81L139.59-1.81L139.59-1.81Q139.59-2.53 140.06-2.88L140.06-2.88L140.06-2.88Q144.75-6.28 150.47-22.75L150.47-22.75L152.34-28.03L152.34-28.03Q155.56-37.16 157.78-39.28L157.78-39.28L157.78-39.28Q158.56-39.88 159.41-39.88L159.41-39.88L159.41-39.88Q160.25-39.88 160.88-39.61L160.88-39.61L160.88-39.61Q161.50-39.34 161.97-38.94L161.97-38.94L161.97-38.94Q163.03-38 163.03-37.03L163.03-37.03L163.03-37.03Q163.03-36.06 162.61-35.30L162.61-35.30L162.61-35.30Q162.19-34.53 161.66-33.16L161.66-33.16L161.66-33.16Q160.13-29.16 159.28-26.75L159.28-26.75L157.69-22.25L157.69-22.25Q164.34-23.13 169.47-27.47L169.47-27.47L169.47-27.47Q174.88-32.03 174.88-37.81ZM237.47-6.31L237.47-6.31L237.47-6.31Q238.25-6.31 238.25-5.20L238.25-5.20L238.25-5.20Q238.25-4.09 237.84-3.38L237.84-3.38L237.84-3.38Q237.44-2.66 236.91-2.06L236.91-2.06L236.91-2.06Q236.38-1.47 235.56-0.94L235.56-0.94L235.56-0.94Q233.66 0.31 231.55 0.31L231.55 0.31L231.55 0.31Q229.44 0.31 228.20-0.20L228.20-0.20L228.20-0.20Q226.97-0.72 226.06-1.75L226.06-1.75L226.06-1.75Q224.13-3.91 224.13-7.72L224.13-7.72L224.13-7.72Q224.13-11.78 225.69-17.64L225.69-17.64L225.69-17.64Q227.25-23.50 228.70-27.67L228.70-27.67L228.70-27.67Q230.16-31.84 231.69-35.63L231.69-35.63L234.50-42.78L234.50-42.78Q229.88-38.63 222.78-25.31L222.78-25.31L215.22-11L215.22-11Q209.16 0.31 206.56 0.31L206.56 0.31L206.56 0.31Q204.03 0.31 203.09-1.88L203.09-1.88L203.09-1.88Q202.25-3.97 202.25-8.98L202.25-8.98L202.25-8.98Q202.25-14 203.05-18.61L203.05-18.61L203.05-18.61Q203.84-23.22 205.06-27.63L205.06-27.63L205.06-27.63Q207.19-35.41 210.56-43.06L210.56-43.06L210.56-43.06Q207.28-41.22 203.28-34.84L203.28-34.84L203.28-34.84Q200.22-29.75 198.97-27.41L198.97-27.41L190.91-12.56L190.91-12.56Q185.88-3.41 182.81-1.25L182.81-1.25L182.81-1.25Q180.59 0.31 178.03 0.31L178.03 0.31L178.03 0.31Q175.84 0.31 174.88-1.06L174.88-1.06L174.88-1.06Q174.50-1.63 174.50-2.09L174.50-2.09L174.50-2.09Q174.50-2.56 174.78-2.66L174.78-2.66L174.78-2.66Q176.72-3.19 177.52-3.77L177.52-3.77L177.52-3.77Q178.31-4.34 179.09-4.95L179.09-4.95L179.09-4.95Q179.88-5.56 181.38-7.55L181.38-7.55L181.38-7.55Q182.88-9.53 184.63-12.33L184.63-12.33L184.63-12.33Q186.38-15.13 188.28-18.59L188.28-18.59L192.25-25.91L192.25-25.91Q197.75-36.53 203.75-42.94L203.75-42.94L203.75-42.94Q205.88-45.22 207.94-46.47L207.94-46.47L207.94-46.47Q210-47.94 212.72-48.44L212.72-48.44L212.72-48.44Q213.47-48.59 214.11-48.59L214.11-48.59L214.11-48.59Q214.75-48.59 215.55-48.41L215.55-48.41L215.55-48.41Q216.34-48.22 216.94-47.81L216.94-47.81L216.94-47.81Q218.31-46.88 217.75-45.31L217.75-45.31L217.75-45.31Q217.50-44.38 216.78-42.50L216.78-42.50L215.09-38.03L215.09-38.03Q209.19-21.72 208.63-8.34L208.63-8.34L208.63-8.34Q210.28-11.19 211.97-14.56L211.97-14.56L215.50-21.53L219.22-28.63L219.22-28.63Q227.81-44.56 235.19-46.88L235.19-46.88L235.19-46.88Q236.72-47.38 237.75-47.38L237.75-47.38L237.75-47.38Q238.78-47.38 239.38-47.11L239.38-47.11L239.38-47.11Q239.97-46.84 240.44-46.44L240.44-46.44L240.44-46.44Q241.53-45.44 241.19-44.39L241.19-44.39L241.19-44.39Q240.84-43.34 240.28-41.72L240.28-41.72L235.75-28.50L234.13-23.31L234.13-23.31Q231.44-14.31 230.94-9.50L230.94-9.50L230.94-9.50Q230.75-7.47 231.39-6.33L231.39-6.33L231.39-6.33Q232.03-5.19 233.16-5.19L233.16-5.19L233.16-5.19Q234.28-5.19 234.92-5.36L234.92-5.36L234.92-5.36Q235.56-5.53 236.03-5.75L236.03-5.75L236.84-6.13L236.84-6.13Q237.19-6.31 237.47-6.31ZM264.16-5.78L264.16-7.09L264.16-7.09Q264.16-11.31 266.56-20.03L266.56-20.03L266.56-20.03Q259.03-19.84 255.03-19.59L255.03-19.59L255.03-19.59Q253.81-17.38 252.81-15.38L252.81-15.38L250.88-11.53L250.88-11.53Q247.03-3.97 243.97-1.56L243.97-1.56L243.97-1.56Q241.63 0.31 239 0.31L239 0.31L239 0.31Q237 0.31 235.97-1L235.97-1L235.97-1Q235.59-1.53 235.53-2.02L235.53-2.02L235.53-2.02Q235.47-2.50 235.75-2.66L235.75-2.66L235.75-2.66Q239.34-4 241.59-6.75L241.59-6.75L241.59-6.75Q243.56-9.22 245.53-12.78L245.53-12.78L249.06-19.09L247.09-18.81L247.09-18.81Q245.22-18.47 245.22-19.41L245.22-19.41L245.22-19.41Q245.22-20.34 246.34-21.19L246.34-21.19L246.34-21.19Q248.31-22.66 250.19-23.13L250.19-23.13L251.53-23.44L251.53-23.44Q256.66-31.91 259.36-35.28L259.36-35.28L259.36-35.28Q262.06-38.66 264.30-40.91L264.30-40.91L264.30-40.91Q266.53-43.16 269-44.88L269-44.88L269-44.88Q274.41-48.59 279.66-48.59L279.66-48.59L279.66-48.59Q281.25-48.59 281.81-47.94L281.81-47.94L281.81-47.94Q282.75-46.91 282.41-45.73L282.41-45.73L282.41-45.73Q282.06-44.56 281.28-42.38L281.28-42.38L281.28-42.38Q276.28-28.75 275.19-25.50L275.19-25.50L275.19-25.50Q275.69-25.53 276.09-25.53L276.09-25.53L276.78-25.53L276.78-25.53Q280.28-25.53 280.53-24.84L280.53-24.84L280.53-24.84Q280.59-24.63 280.59-24.05L280.59-24.05L280.59-24.05Q280.59-23.47 280.23-22.72L280.23-22.72L280.23-22.72Q279.88-21.97 279.06-21.44L279.06-21.44L279.06-21.44Q277.41-20.31 273.50-20.13L273.50-20.13L273.50-20.13Q271.38-12.78 271.08-9.97L271.08-9.97L271.08-9.97Q270.78-7.16 271.27-6.17L271.27-6.17L271.27-6.17Q271.75-5.19 272.64-5.19L272.64-5.19L272.64-5.19Q273.53-5.19 274.09-5.36L274.09-5.36L274.09-5.36Q274.66-5.53 275.09-5.75L275.09-5.75L275.91-6.13L275.91-6.13Q276.22-6.31 276.55-6.31L276.55-6.31L276.55-6.31Q276.88-6.31 277.09-5.89L277.09-5.89L277.09-5.89Q277.31-5.47 277.31-4.78L277.31-4.78L277.31-4.78Q277.31-4.09 276.73-3.14L276.73-3.14L276.73-3.14Q276.16-2.19 275.22-1.44L275.22-1.44L275.22-1.44Q273.03 0.31 270.28 0.31L270.28 0.31L270.28 0.31Q266.06 0.31 264.66-3.44L264.66-3.44L264.66-3.44Q264.16-4.75 264.16-5.78L264.16-5.78ZM260.34-28.69L257.91-24.53L257.91-24.53Q263.47-25.25 268.22-25.38L268.22-25.38L268.22-25.38Q269.09-28.06 270.09-30.69L270.09-30.69L272.03-35.69L272.03-35.69Q273.03-38.06 274-40.19L274-40.19L275.81-44.03L275.81-44.03Q269.31-42.34 262.97-32.81L262.97-32.81L262.97-32.81Q261.63-30.81 260.34-28.69L260.34-28.69ZM318.42-42.73L318.42-42.73L318.42-42.73Q317.50-42.06 316.30-41.73L316.30-41.73L316.30-41.73Q315.09-41.41 313.08-41.41L313.08-41.41L313.08-41.41Q311.06-41.41 307.84-41.69L307.84-41.69L307.84-41.69Q307.09-39.66 306.31-36.94L306.31-36.94L302.72-24.69L302.72-24.69Q296.06-2.69 288.53 0L288.53 0L288.53 0Q288 0.22 287.17 0.22L287.17 0.22L287.17 0.22Q286.34 0.22 285.83 0.02L285.83 0.02L285.83 0.02Q285.31-0.19 284.97-0.50L284.97-0.50L284.97-0.50Q284.28-1.06 284.28-1.63L284.28-1.63L284.28-1.63Q284.28-2.19 284.56-2.38L284.56-2.38L285.38-2.88L285.38-2.88Q289.88-5.81 293.63-18.50L293.63-18.50L295.88-26.13L295.88-26.13Q298.91-36.41 301.53-42.28L301.53-42.28L301.53-42.28Q299.06-42.50 297.78-42.50L297.78-42.50L297.78-42.50Q294.09-42.50 292.47-41.47L292.47-41.47L292.47-41.47Q290.88-40.44 290.23-39.23L290.23-39.23L290.23-39.23Q289.59-38.03 289.56-37.56L289.56-37.56L289.56-37.56Q289.47-36.69 289-36.45L289-36.45L289-36.45Q288.53-36.22 287.86-36.22L287.86-36.22L287.86-36.22Q287.19-36.22 286.47-36.70L286.47-36.70L286.47-36.70Q285.75-37.19 285.28-37.94L285.28-37.94L285.28-37.94Q284.28-39.47 284.50-41.39L284.50-41.39L284.50-41.39Q284.72-43.31 285.77-44.70L285.77-44.70L285.77-44.70Q286.81-46.09 288.25-46.97L288.25-46.97L288.25-46.97Q290.91-48.59 293.86-48.59L293.86-48.59L293.86-48.59Q296.81-48.59 299.45-48.30L299.45-48.30L299.45-48.30Q302.09-48 304.72-47.63L304.72-47.63L304.72-47.63Q311.69-46.69 313.59-46.69L313.59-46.69L313.59-46.69Q315.50-46.69 316.42-46.91L316.42-46.91L316.42-46.91Q317.34-47.13 318-47.56L318-47.56L318-47.56Q318.66-48 318.92-48.14L318.92-48.14L318.92-48.14Q319.19-48.28 319.78-48.28L319.78-48.28L319.78-48.28Q320.72-48.28 320.59-46.86L320.59-46.86L320.59-46.86Q320.47-45.44 319.91-44.42L319.91-44.42L319.91-44.42Q319.34-43.41 318.42-42.73ZM343.09-41.66L343.09-41.66L343.09-41.66Q343.09-44.28 339.97-44.28L339.97-44.28L339.97-44.28Q334-44.28 329.13-38.75L329.13-38.75L329.13-38.75Q326.25-35.50 325.09-31.72L325.09-31.72L325.09-31.72Q324.53-29.88 324.53-28.47L324.53-28.47L324.53-28.47Q324.53-27.06 324.86-26.23L324.86-26.23L324.86-26.23Q325.19-25.41 325.69-24.88L325.69-24.88L325.69-24.88Q326.75-23.75 328.16-24L328.16-24L328.16-24Q329.69-24.63 330.86-24.63L330.86-24.63L330.86-24.63Q332.03-24.63 332.73-24.33L332.73-24.33L332.73-24.33Q333.44-24.03 333.88-23.59L333.88-23.59L333.88-23.59Q334.78-22.72 334.78-21.91L334.78-21.91L334.78-21.91Q334.78-20.31 333.72-20.25L333.72-20.25L333.72-20.25Q332.09-20.09 330.31-19.34L330.31-19.34L330.31-19.34Q328.53-18.59 326.72-17.39L326.72-17.39L326.72-17.39Q324.91-16.19 323.50-14.69L323.50-14.69L323.50-14.69Q320.28-11.25 320.28-7.78L320.28-7.78L320.28-7.78Q320.28-6.13 321.06-5.28L321.06-5.28L321.06-5.28Q322.38-3.81 324.19-3.81L324.19-3.81L324.19-3.81Q326-3.81 327.73-4.52L327.73-4.52L327.73-4.52Q329.47-5.22 330.88-6.22L330.88-6.22L330.88-6.22Q333-7.75 335-10.13L335-10.13L335-10.13Q336-11.31 336.75-11.31L336.75-11.31L336.75-11.31Q337.50-11.31 337.89-10.42L337.89-10.42L337.89-10.42Q338.28-9.53 338.28-8.53L338.28-8.53L338.28-8.53Q338.28-6.47 337.50-5.48L337.50-5.48L337.50-5.48Q336.72-4.50 335.55-3.52L335.55-3.52L335.55-3.52Q334.38-2.53 332.75-1.69L332.75-1.69L332.75-1.69Q328.84 0.31 324.38 0.31L324.38 0.31L324.38 0.31Q316.84 0.31 314.06-4.63L314.06-4.63L314.06-4.63Q313.06-6.47 313.06-8.41L313.06-8.41L313.06-8.41Q313.06-10.34 313.64-12L313.64-12L313.64-12Q314.22-13.66 315.13-15.08L315.13-15.08L315.13-15.08Q316.03-16.50 317.16-17.64L317.16-17.64L317.16-17.64Q318.28-18.78 319.38-19.63L319.38-19.63L319.38-19.63Q321.53-21.31 322.94-21.53L322.94-21.53L322.94-21.53Q319.41-22.94 318.19-27L318.19-27L318.19-27Q317.81-28.31 317.81-30.19L317.81-30.19L317.81-30.19Q317.81-32.06 318.53-34.33L318.53-34.33L318.53-34.33Q319.25-36.59 320.56-38.67L320.56-38.67L320.56-38.67Q321.88-40.75 323.69-42.56L323.69-42.56L323.69-42.56Q325.50-44.38 327.69-45.72L327.69-45.72L327.69-45.72Q332.41-48.59 337.63-48.59L337.63-48.59L337.63-48.59Q343.09-48.59 345.78-45.88L345.78-45.88L345.78-45.88Q347.94-43.69 347.94-40.28L347.94-40.28L347.94-40.28Q347.94-36.41 344.69-32.44L344.69-32.44L344.69-32.44Q342.72-30.06 341.14-29.22L341.14-29.22L341.14-29.22Q339.56-28.38 338.67-28.30L338.67-28.30L338.67-28.30Q337.78-28.22 337.02-28.52L337.02-28.52L337.02-28.52Q336.25-28.81 335.69-29.31L335.69-29.31L335.69-29.31Q334.41-30.47 334.41-31.41L334.41-31.41L334.41-31.41Q334.41-32.56 335.22-33.19L335.22-33.19L338.03-35.19L338.03-35.19Q343.09-38.91 343.09-41.66ZM365.84-13.13L365.84-13.13L365.88-14.03L365.88-14.03Q366.22-23.38 370.59-31.69L370.59-31.69L370.59-31.69Q374.63-39.28 380.75-43.97L380.75-43.97L380.75-43.97Q386.81-48.59 392.56-48.59L392.56-48.59L392.56-48.59Q396.94-48.59 399.47-45.56L399.47-45.56L399.47-45.56Q401.63-42.94 401.63-39.13L401.63-39.13L401.63-39.13Q401.63-34.56 398.28-30.13L398.28-30.13L398.28-30.13Q396.34-27.56 394.16-26.44L394.16-26.44L394.16-26.44Q393.13-25.88 392.23-25.88L392.23-25.88L392.23-25.88Q391.34-25.88 390.59-26.25L390.59-26.25L390.59-26.25Q389.84-26.63 389.28-27.19L389.28-27.19L389.28-27.19Q388.13-28.41 388.13-29.38L388.13-29.38L388.13-29.38Q388.13-30.34 388.63-30.72L388.63-30.72L388.63-30.72Q393.75-34.41 395.59-38.31L395.59-38.31L395.59-38.31Q396.31-39.81 396.31-41.25L396.31-41.25L396.31-41.25Q396.31-44.28 393.44-44.28L393.44-44.28L393.44-44.28Q388.94-44.28 384.16-39.38L384.16-39.38L384.16-39.38Q379.69-34.84 376.66-28L376.66-28L376.66-28Q373.50-20.97 373.31-15.09L373.31-15.09L373.28-13.91L373.28-13.91Q373.28-6.88 376.25-4.69L376.25-4.69L376.25-4.69Q377.31-3.91 378.80-3.91L378.80-3.91L378.80-3.91Q380.28-3.91 381.59-4.28L381.59-4.28L381.59-4.28Q382.91-4.66 384.22-5.31L384.22-5.31L384.22-5.31Q386.34-6.41 389.66-9.09L389.66-9.09L389.66-9.09Q390.66-9.88 391.31-8.88L391.31-8.88L391.31-8.88Q391.88-8.06 391.88-7L391.88-7L391.88-7Q391.88-5.22 391.39-4.58L391.39-4.58L391.39-4.58Q390.91-3.94 389.73-3.06L389.73-3.06L389.73-3.06Q388.56-2.19 386.88-1.44L386.88-1.44L386.88-1.44Q382.94 0.31 379.16 0.31L379.16 0.31L379.16 0.31Q375.38 0.31 373.06-0.61L373.06-0.61L373.06-0.61Q370.75-1.53 369.16-3.25L369.16-3.25L369.16-3.25Q365.84-6.88 365.84-13.13ZM400.63-14.25L400.63-14.25L400.63-14.25Q400.75-18 401.80-22.14L401.80-22.14L401.80-22.14Q402.84-26.28 404.66-30.13L404.66-30.13L404.66-30.13Q406.47-33.97 408.95-37.34L408.95-37.34L408.95-37.34Q411.44-40.72 414.41-43.22L414.41-43.22L414.41-43.22Q420.78-48.59 427.78-48.59L427.78-48.59L427.78-48.59Q436.28-48.59 438.88-40.88L438.88-40.88L438.88-40.88Q439.81-38.16 439.70-34.17L439.70-34.17L439.70-34.17Q439.59-30.19 438.48-26.06L438.48-26.06L438.48-26.06Q437.38-21.94 435.48-18.09L435.48-18.09L435.48-18.09Q433.59-14.25 431.06-10.89L431.06-10.89L431.06-10.89Q428.53-7.53 425.56-5.06L425.56-5.06L425.56-5.06Q419.22 0.31 412.88 0.31L412.88 0.31L412.88 0.31Q407.19 0.31 403.84-3.41L403.84-3.41L403.84-3.41Q400.44-7.22 400.63-14.25ZM410.81-26.25L410.81-26.25Q409.22-22.63 408.23-18.84L408.23-18.84L408.23-18.84Q407.25-15.06 407.17-12.42L407.17-12.42L407.17-12.42Q407.09-9.78 407.48-8.33L407.48-8.33L407.48-8.33Q407.88-6.88 408.59-5.88L408.59-5.88L408.59-5.88Q410.09-3.75 412.45-3.75L412.45-3.75L412.45-3.75Q414.81-3.75 417.19-5.28L417.19-5.28L417.19-5.28Q419.56-6.81 421.80-9.38L421.80-9.38L421.80-9.38Q424.03-11.94 426.05-15.28L426.05-15.28L426.05-15.28Q428.06-18.63 429.59-22.25L429.59-22.25L429.59-22.25Q434.03-32.78 432.84-39.63L432.84-39.63L432.84-39.63Q432.03-44.38 427.66-44.38L427.66-44.38L427.66-44.38Q423.66-44.38 418.75-38.94L418.75-38.94L418.75-38.94Q414.13-33.88 410.81-26.25L410.81-26.25ZM472.34-3.22L472.34-3.22L472.38-2.19L472.38-2.19Q472.38-1.13 471.78-0.53L471.78-0.53L471.78-0.53Q471.19 0.06 470.17 0.06L470.17 0.06L470.17 0.06Q469.16 0.06 467.91-0.78L467.91-0.78L467.91-0.78Q466.66-1.63 465.25-3.63L465.25-3.63L465.25-3.63Q463.84-5.63 462.47-9.08L462.47-9.08L462.47-9.08Q461.09-12.53 460.19-16.44L460.19-16.44L460.19-16.44Q458.38-24.19 458.38-32.66L458.38-32.66L458.38-32.66Q458.38-36.88 458.84-40.69L458.84-40.69L458.44-40.13L458.44-40.13Q452.63-31.81 448.13-15.19L448.13-15.19L448.13-15.19Q446-7.44 445.19-0.59L445.19-0.59L445.19-0.59Q445.06 0.34 443.66 0.34L443.66 0.34L443.66 0.34Q441.44 0.34 440.44-1.94L440.44-1.94L440.44-1.94Q440.09-2.75 440.09-4.22L440.09-4.22L440.09-4.22Q440.09-5.69 440.64-8.52L440.64-8.52L440.64-8.52Q441.19-11.34 442.16-14.77L442.16-14.77L442.16-14.77Q443.13-18.19 444.50-21.98L444.50-21.98L444.50-21.98Q445.88-25.78 447.52-29.50L447.52-29.50L447.52-29.50Q449.16-33.22 451.05-36.59L451.05-36.59L451.05-36.59Q452.94-39.97 454.94-42.56L454.94-42.56L454.94-42.56Q459.38-48.25 463.25-48.44L463.25-48.44L463.25-48.44Q465.38-48.56 465.94-47.78L465.94-47.78L465.94-47.78Q466.56-46.91 466.06-44.78L466.06-44.78L466.06-44.78Q465.16-41.13 465.16-37.53L465.16-37.53L465.16-37.53Q465.16-33.94 465.33-31.47L465.33-31.47L465.33-31.47Q465.50-29 465.81-26.52L465.81-26.52L465.81-26.52Q466.13-24.03 466.58-21.59L466.58-21.59L466.58-21.59Q467.03-19.16 467.56-16.94L467.56-16.94L467.56-16.94Q468.78-12.06 470.03-9.25L470.03-9.25L470.03-9.25Q471.03-11.84 472.22-14.44L472.22-14.44L476.88-24.69L476.88-24.69Q480.75-33.38 480.75-38.63L480.75-38.63L480.75-38.63Q480.75-43.56 478.72-44.59L478.72-44.59L478.72-44.59Q478.22-44.81 478.11-45.41L478.11-45.41L478.11-45.41Q478-46 478.33-46.59L478.33-46.59L478.33-46.59Q478.66-47.19 479.19-47.63L479.19-47.63L479.19-47.63Q480.44-48.66 481.95-48.66L481.95-48.66L481.95-48.66Q483.47-48.66 484.75-48.02L484.75-48.02L484.75-48.02Q486.03-47.38 486.88-46.31L486.88-46.31L486.88-46.31Q488.47-44.28 488.47-41.52L488.47-41.52L488.47-41.52Q488.47-38.75 487.52-35.80L487.52-35.80L487.52-35.80Q486.56-32.84 485.06-29.64L485.06-29.64L485.06-29.64Q483.56-26.44 481.72-23.13L481.72-23.13L478.13-16.56L478.13-16.56Q473.84-8.75 472.56-4.69L472.56-4.69L472.56-4.69Q472.34-4.06 472.34-3.22ZM536.44-41.66L536.44-41.66L536.44-41.66Q536.44-44.28 533.31-44.28L533.31-44.28L533.31-44.28Q527.34-44.28 522.47-38.75L522.47-38.75L522.47-38.75Q519.59-35.50 518.44-31.72L518.44-31.72L518.44-31.72Q517.88-29.88 517.88-28.47L517.88-28.47L517.88-28.47Q517.88-27.06 518.20-26.23L518.20-26.23L518.20-26.23Q518.53-25.41 519.03-24.88L519.03-24.88L519.03-24.88Q520.09-23.75 521.50-24L521.50-24L521.50-24Q523.03-24.63 524.20-24.63L524.20-24.63L524.20-24.63Q525.38-24.63 526.08-24.33L526.08-24.33L526.08-24.33Q526.78-24.03 527.22-23.59L527.22-23.59L527.22-23.59Q528.13-22.72 528.13-21.91L528.13-21.91L528.13-21.91Q528.13-20.31 527.06-20.25L527.06-20.25L527.06-20.25Q525.44-20.09 523.66-19.34L523.66-19.34L523.66-19.34Q521.88-18.59 520.06-17.39L520.06-17.39L520.06-17.39Q518.25-16.19 516.84-14.69L516.84-14.69L516.84-14.69Q513.63-11.25 513.63-7.78L513.63-7.78L513.63-7.78Q513.63-6.13 514.41-5.28L514.41-5.28L514.41-5.28Q515.72-3.81 517.53-3.81L517.53-3.81L517.53-3.81Q519.34-3.81 521.08-4.52L521.08-4.52L521.08-4.52Q522.81-5.22 524.22-6.22L524.22-6.22L524.22-6.22Q526.34-7.75 528.34-10.13L528.34-10.13L528.34-10.13Q529.34-11.31 530.09-11.31L530.09-11.31L530.09-11.31Q530.84-11.31 531.23-10.42L531.23-10.42L531.23-10.42Q531.63-9.53 531.63-8.53L531.63-8.53L531.63-8.53Q531.63-6.47 530.84-5.48L530.84-5.48L530.84-5.48Q530.06-4.50 528.89-3.52L528.89-3.52L528.89-3.52Q527.72-2.53 526.09-1.69L526.09-1.69L526.09-1.69Q522.19 0.31 517.72 0.31L517.72 0.31L517.72 0.31Q510.19 0.31 507.41-4.63L507.41-4.63L507.41-4.63Q506.41-6.47 506.41-8.41L506.41-8.41L506.41-8.41Q506.41-10.34 506.98-12L506.98-12L506.98-12Q507.56-13.66 508.47-15.08L508.47-15.08L508.47-15.08Q509.38-16.50 510.50-17.64L510.50-17.64L510.50-17.64Q511.63-18.78 512.72-19.63L512.72-19.63L512.72-19.63Q514.88-21.31 516.28-21.53L516.28-21.53L516.28-21.53Q512.75-22.94 511.53-27L511.53-27L511.53-27Q511.16-28.31 511.16-30.19L511.16-30.19L511.16-30.19Q511.16-32.06 511.88-34.33L511.88-34.33L511.88-34.33Q512.59-36.59 513.91-38.67L513.91-38.67L513.91-38.67Q515.22-40.75 517.03-42.56L517.03-42.56L517.03-42.56Q518.84-44.38 521.03-45.72L521.03-45.72L521.03-45.72Q525.75-48.59 530.97-48.59L530.97-48.59L530.97-48.59Q536.44-48.59 539.13-45.88L539.13-45.88L539.13-45.88Q541.28-43.69 541.28-40.28L541.28-40.28L541.28-40.28Q541.28-36.41 538.03-32.44L538.03-32.44L538.03-32.44Q536.06-30.06 534.48-29.22L534.48-29.22L534.48-29.22Q532.91-28.38 532.02-28.30L532.02-28.30L532.02-28.30Q531.13-28.22 530.36-28.52L530.36-28.52L530.36-28.52Q529.59-28.81 529.03-29.31L529.03-29.31L529.03-29.31Q527.75-30.47 527.75-31.41L527.75-31.41L527.75-31.41Q527.75-32.56 528.56-33.19L528.56-33.19L531.38-35.19L531.38-35.19Q536.44-38.91 536.44-41.66ZM541.55-2.97L541.55-2.97L541.55-2.97Q540.84-4.31 540.50-5.83L540.50-5.83L540.50-5.83Q540.16-7.34 540.16-9.02L540.16-9.02L540.16-9.02Q540.16-10.69 540.73-13.44L540.73-13.44L540.73-13.44Q541.31-16.19 542.31-19.23L542.31-19.23L542.31-19.23Q543.31-22.28 544.64-25.47L544.64-25.47L544.64-25.47Q545.97-28.66 547.47-31.69L547.47-31.69L547.47-31.69Q550.53-38 553.56-42.63L553.56-42.63L553.22-42.63L553.22-42.63Q549.50-42.63 546.31-40.94L546.31-40.94L546.31-40.94Q545.53-40.34 544.81-40.34L544.81-40.34L544.81-40.34Q543.31-40.34 541.91-41.81L541.91-41.81L541.91-41.81Q538.66-45.25 545.78-47.50L545.78-47.50L545.78-47.50Q549.13-48.59 551.17-48.59L551.17-48.59L551.17-48.59Q553.22-48.59 554.47-47.95L554.47-47.95L554.47-47.95Q555.72-47.31 556.59-46.44L556.59-46.44L556.59-46.44Q557.97-45.06 558.55-43.72L558.55-43.72L558.55-43.72Q559.13-42.38 559.13-41.36L559.13-41.36L559.13-41.36Q559.13-40.34 558.52-38.64L558.52-38.64L558.52-38.64Q557.91-36.94 556.97-35L556.97-35L554.84-30.88L554.84-30.88Q553.72-28.72 552.59-26.34L552.59-26.34L552.59-26.34Q551.47-23.97 550.34-21.59L550.34-21.59L550.34-21.59Q549.22-19.22 548.34-16.97L548.34-16.97L548.34-16.97Q546.44-11.94 546.44-8.44L546.44-8.44L546.44-8.44Q546.44-6.31 546.84-4.94L546.84-4.94L546.84-4.94Q548.22-7.13 550.22-9.50L550.22-9.50L554.59-14.41L554.59-14.41Q562.19-22.59 564.47-25.28L564.47-25.28L564.47-25.28Q569.81-31.56 572.66-37.13L572.66-37.13L572.66-37.13Q573.81-39.34 573.81-41.16L573.81-41.16L573.81-41.16Q573.81-44.50 571.97-46.19L571.97-46.19L571.97-46.19Q571.31-46.84 571.80-47.78L571.80-47.78L571.80-47.78Q572.28-48.72 572.78-49.19L572.78-49.19L572.78-49.19Q574-50.28 575.53-50.28L575.53-50.28L575.53-50.28Q577.06-50.28 578.13-49.66L578.13-49.66L578.13-49.66Q579.19-49.03 579.84-48.06L579.84-48.06L579.84-48.06Q581.19-46.16 581.19-43.33L581.19-43.33L581.19-43.33Q581.19-40.50 579.98-37.34L579.98-37.34L579.98-37.34Q578.78-34.19 576.83-31.17L576.83-31.17L576.83-31.17Q574.88-28.16 572.39-25.33L572.39-25.33L572.39-25.33Q569.91-22.50 567.31-19.94L567.31-19.94L557.88-11.03L557.88-11.03Q553.59-6.72 552.16-5.13L552.16-5.13L552.16-5.13Q549.41-2.06 548.63-1.09L548.63-1.09L548.63-1.09Q547.84-0.13 547.22 0.06L547.22 0.06L547.22 0.06Q546.59 0.25 545.53 0.25L545.53 0.25L545.53 0.25Q544.47 0.25 543.36-0.69L543.36-0.69L543.36-0.69Q542.25-1.63 541.55-2.97ZM606.66-41.66L606.66-41.66L606.66-41.66Q606.66-44.28 603.53-44.28L603.53-44.28L603.53-44.28Q597.56-44.28 592.69-38.75L592.69-38.75L592.69-38.75Q589.81-35.50 588.66-31.72L588.66-31.72L588.66-31.72Q588.09-29.88 588.09-28.47L588.09-28.47L588.09-28.47Q588.09-27.06 588.42-26.23L588.42-26.23L588.42-26.23Q588.75-25.41 589.25-24.88L589.25-24.88L589.25-24.88Q590.31-23.75 591.72-24L591.72-24L591.72-24Q593.25-24.63 594.42-24.63L594.42-24.63L594.42-24.63Q595.59-24.63 596.30-24.33L596.30-24.33L596.30-24.33Q597-24.03 597.44-23.59L597.44-23.59L597.44-23.59Q598.34-22.72 598.34-21.91L598.34-21.91L598.34-21.91Q598.34-20.31 597.28-20.25L597.28-20.25L597.28-20.25Q595.66-20.09 593.88-19.34L593.88-19.34L593.88-19.34Q592.09-18.59 590.28-17.39L590.28-17.39L590.28-17.39Q588.47-16.19 587.06-14.69L587.06-14.69L587.06-14.69Q583.84-11.25 583.84-7.78L583.84-7.78L583.84-7.78Q583.84-6.13 584.63-5.28L584.63-5.28L584.63-5.28Q585.94-3.81 587.75-3.81L587.75-3.81L587.75-3.81Q589.56-3.81 591.30-4.52L591.30-4.52L591.30-4.52Q593.03-5.22 594.44-6.22L594.44-6.22L594.44-6.22Q596.56-7.75 598.56-10.13L598.56-10.13L598.56-10.13Q599.56-11.31 600.31-11.31L600.31-11.31L600.31-11.31Q601.06-11.31 601.45-10.42L601.45-10.42L601.45-10.42Q601.84-9.53 601.84-8.53L601.84-8.53L601.84-8.53Q601.84-6.47 601.06-5.48L601.06-5.48L601.06-5.48Q600.28-4.50 599.11-3.52L599.11-3.52L599.11-3.52Q597.94-2.53 596.31-1.69L596.31-1.69L596.31-1.69Q592.41 0.31 587.94 0.31L587.94 0.31L587.94 0.31Q580.41 0.31 577.63-4.63L577.63-4.63L577.63-4.63Q576.63-6.47 576.63-8.41L576.63-8.41L576.63-8.41Q576.63-10.34 577.20-12L577.20-12L577.20-12Q577.78-13.66 578.69-15.08L578.69-15.08L578.69-15.08Q579.59-16.50 580.72-17.64L580.72-17.64L580.72-17.64Q581.84-18.78 582.94-19.63L582.94-19.63L582.94-19.63Q585.09-21.31 586.50-21.53L586.50-21.53L586.50-21.53Q582.97-22.94 581.75-27L581.75-27L581.75-27Q581.38-28.31 581.38-30.19L581.38-30.19L581.38-30.19Q581.38-32.06 582.09-34.33L582.09-34.33L582.09-34.33Q582.81-36.59 584.13-38.67L584.13-38.67L584.13-38.67Q585.44-40.75 587.25-42.56L587.25-42.56L587.25-42.56Q589.06-44.38 591.25-45.72L591.25-45.72L591.25-45.72Q595.97-48.59 601.19-48.59L601.19-48.59L601.19-48.59Q606.66-48.59 609.34-45.88L609.34-45.88L609.34-45.88Q611.50-43.69 611.50-40.28L611.50-40.28L611.50-40.28Q611.50-36.41 608.25-32.44L608.25-32.44L608.25-32.44Q606.28-30.06 604.70-29.22L604.70-29.22L604.70-29.22Q603.13-28.38 602.23-28.30L602.23-28.30L602.23-28.30Q601.34-28.22 600.58-28.52L600.58-28.52L600.58-28.52Q599.81-28.81 599.25-29.31L599.25-29.31L599.25-29.31Q597.97-30.47 597.97-31.41L597.97-31.41L597.97-31.41Q597.97-32.56 598.78-33.19L598.78-33.19L601.59-35.19L601.59-35.19Q606.66-38.91 606.66-41.66Z" fill="#ff038f"></path></g></g><style>text {
  font-size: 64px;
  font-family: Arial Black;
  dominant-baseline: central;
  text-anchor: middle;
}</style></svg>